<?xml version="1.0" encoding="UTF-8"?>
<svg version="1.1" xmlns="http://www.w3.org/2000/svg" width="500" height="500">
<path d="M0 0 C14.85 0 29.7 0 45 0 C47.25002635 9.00010539 47.25002635 9.00010539 47.25726891 12.39112854 C47.2637178 13.16702017 47.27016669 13.9429118 47.276811 14.74231529 C47.2721652 15.98083968 47.2721652 15.98083968 47.26742554 17.24438477 C47.27195665 18.14239618 47.27648776 19.0404076 47.28115618 19.96563148 C47.29375845 22.95760957 47.29218248 25.94940465 47.29052734 28.94140625 C47.29651538 31.09394056 47.30332156 33.24647272 47.31088257 35.39900208 C47.32852629 41.23620487 47.3332374 47.07334899 47.33451414 52.91057587 C47.33593775 56.56313178 47.34021143 60.21567287 47.34550858 63.8682251 C47.36400673 76.62749169 47.37217986 89.38671654 47.37060547 102.14599609 C47.36940563 114.01108251 47.39047767 125.87598657 47.4220928 137.74102688 C47.44831524 147.94858112 47.45897019 158.15607604 47.45769465 168.36366367 C47.45718657 174.45068843 47.46278365 180.53755123 47.48405075 186.62454224 C47.50353257 192.35709757 47.50348989 198.08933817 47.48901749 203.82190514 C47.48694026 205.9147456 47.49156469 208.00760628 47.5037384 210.10041237 C47.61474858 230.52297035 45.08651095 249.37567437 30.26953125 264.7578125 C29.14611328 265.86769531 29.14611328 265.86769531 28 267 C27.38511719 267.63679688 26.77023437 268.27359375 26.13671875 268.9296875 C11.42154879 283.10918746 -7.44359967 284.47769654 -26.6875 284.46875 C-28.56266503 284.4758655 -30.43782792 284.48356649 -32.31298828 284.49182129 C-36.21604502 284.50517901 -40.11889963 284.50687102 -44.02197266 284.50097656 C-49.02004005 284.49504317 -54.01714854 284.52586169 -59.01502991 284.56609344 C-62.87552099 284.59192699 -66.73577839 284.59485268 -70.59634399 284.59120178 C-72.43993571 284.59289248 -74.28353827 284.60253022 -76.12704468 284.62034607 C-78.69733806 284.64248485 -81.26565091 284.63286637 -83.8359375 284.61523438 C-84.59235031 284.62849762 -85.34876312 284.64176086 -86.12809753 284.65542603 C-89.8879561 284.5955026 -91.86919491 284.09088837 -94.97973633 281.92956543 C-97.55461396 278.1957595 -97.57811958 276.02160273 -97.48828125 271.51171875 C-97.48120651 270.80852005 -97.47413177 270.10532135 -97.46684265 269.3808136 C-97.43899212 267.14859773 -97.3762832 264.91894923 -97.3125 262.6875 C-97.28740451 261.16865619 -97.26459352 259.6497728 -97.24414062 258.13085938 C-97.18920007 254.41974752 -97.10299739 250.71012459 -97 247 C-96.04501617 246.99413376 -95.09003235 246.98826752 -94.10610962 246.98222351 C-85.07335031 246.92482452 -76.04082779 246.85197424 -67.00831032 246.76428509 C-62.36542141 246.71969994 -57.72261785 246.68041817 -53.07958984 246.65356445 C-48.59253739 246.62741258 -44.1058155 246.58692753 -39.61896896 246.53681374 C-37.91354889 246.52022496 -36.20807175 246.50866122 -34.50258255 246.50238609 C-17.6947139 246.48211139 -17.6947139 246.48211139 -3 239 C3.69236254 232.15200112 5.4570763 225.24070847 5.38768005 216.01895142 C5.39306559 215.14937502 5.39845113 214.27979863 5.40399987 213.38387144 C5.41823545 210.48835232 5.41118659 207.59329321 5.40405273 204.69775391 C5.40975862 202.61429987 5.41672373 200.53084896 5.42485046 198.44740295 C5.44277343 192.80064593 5.44161498 187.15404438 5.43590808 181.50726748 C5.43281477 176.78815895 5.43891033 172.06908022 5.44494683 167.34997594 C5.45898784 156.21408629 5.45743447 145.07827335 5.44604492 133.94238281 C5.43456599 122.46570245 5.4486367 110.98925583 5.4754414 99.51260626 C5.4976153 89.6482347 5.50423189 79.78393642 5.49836498 69.91954172 C5.49499805 64.03280755 5.49739304 58.14622318 5.51461601 52.25951004 C5.53010972 46.7222994 5.52610241 41.18543434 5.50731087 35.64823723 C5.50363163 33.62060931 5.50671395 31.59295565 5.51719666 29.56535149 C5.79526038 15.26885279 5.79526038 15.26885279 1 2 C0.505 1.01 0.505 1.01 0 0 Z " fill="#313334" transform="translate(275,132)"/>
<path d="M0 0 C1.21335274 -0.00832352 1.21335274 -0.00832352 2.45121765 -0.01681519 C5.12173021 -0.02860972 7.79054377 -0.00432261 10.4609375 0.02148438 C12.32836836 0.02319694 14.19580162 0.02312832 16.06323242 0.0213623 C19.98070235 0.02301593 23.89760038 0.04170853 27.81494141 0.07324219 C32.80331063 0.11269993 37.79092349 0.11731303 42.77941895 0.10977936 C46.64026652 0.10668688 50.50094845 0.11891405 54.36175537 0.13591003 C56.19869952 0.1428805 58.03566245 0.1460719 59.87261963 0.1452179 C79.59541637 0.15913843 96.86379712 3.00928011 111.65625 17.36523438 C112.73519531 18.47898437 112.73519531 18.47898437 113.8359375 19.61523438 C114.82207031 20.60523438 114.82207031 20.60523438 115.828125 21.61523438 C120.62960464 26.72582215 122.51238393 30.96812723 125.8359375 37.61523438 C93.4959375 37.61523438 61.1559375 37.61523438 27.8359375 37.61523438 C27.8359375 119.12523437 27.8359375 200.63523437 27.8359375 284.61523438 C14.3059375 284.61523438 0.7759375 284.61523438 -13.1640625 284.61523438 C-13.2770545 249.15742238 -13.36658893 213.69966263 -13.41938915 178.24170761 C-13.42564281 174.05721558 -13.43211441 169.87272391 -13.4387207 165.68823242 C-13.44003226 164.85516245 -13.44134381 164.02209248 -13.4426951 163.16377797 C-13.4644619 149.66822535 -13.50389041 136.17277904 -13.54982648 122.67728952 C-13.59655573 108.83349009 -13.62435041 94.98974641 -13.63450497 81.14587134 C-13.64137149 72.60084616 -13.66307181 64.05612142 -13.70364483 55.51118871 C-13.73003966 49.6545488 -13.73807094 43.79806461 -13.73156939 37.94136951 C-13.72836121 34.5602568 -13.73605485 31.18009425 -13.76008987 27.79900169 C-13.78486496 24.13505285 -13.77902273 20.47240306 -13.76533508 16.8084259 C-13.77989929 15.73741554 -13.7944635 14.66640517 -13.80946904 13.56293994 C-13.7610652 8.78917445 -13.73269937 6.39538961 -10.86027813 2.45450115 C-7.2671296 0.0033772 -4.20401772 -0.07371493 0 0 Z " fill="#00357F" transform="translate(191.1640625,84.384765625)"/>
</svg>
